<svg xmlns="http://www.w3.org/2000/svg" width="1em" height="1em" viewBox="0 0 24 24"><path fill="currentColor" d="M12 21c-4.963 0-9-4.038-9-9s4.037-9 9-9s9 4.038 9 9s-4.037 9-9 9m0-16c-3.859 0-7 3.14-7 7s3.141 7 7 7s7-3.14 7-7s-3.141-7-7-7m1.565 7.626q.255 0 .441.255q.187.254.187.625q0 .372-.187.626t-.441.254q-.273 0-.461-.254q-.187-.254-.187-.626c0-.372.062-.456.187-.625q.19-.256.461-.255m2.21-2.289q.724.783.725 1.898q-.001.722-.166 1.301a3.2 3.2 0 0 1-.42.939a2.7 2.7 0 0 1-.627.635a3.3 3.3 0 0 1-.685.401q-.312.127-.716.196a5 5 0 0 1-.606.079l-.44.009l-.352.01l-.488.011l-.488-.011l-.352-.01l-.44-.009a5 5 0 0 1-.606-.079a3.3 3.3 0 0 1-.716-.196a3.2 3.2 0 0 1-.684-.401a2.7 2.7 0 0 1-.628-.635a3.2 3.2 0 0 1-.42-.939a4.8 4.8 0 0 1-.166-1.301q0-1.115.725-1.898q-.08-.038-.008-.782a4.7 4.7 0 0 1 .319-1.37q.901.097 2.23 1.017q.45-.117 1.233-.118q.822 0 1.234.118a8 8 0 0 1 1.16-.666q.56-.253.814-.293l.254-.058q.257.627.32 1.37q.074.744-.006.782m-3.754 5.027q1.623 0 2.454-.39t.833-1.605q0-.704-.529-1.174a1.2 1.2 0 0 0-.638-.313q-.358-.059-1.104 0q-.743.059-1.016.058c-.248 0-.517-.013-.851-.039l-.783-.049a2.4 2.4 0 0 0-.616.069a1.24 1.24 0 0 0-.55.273q-.505.45-.507 1.174q0 1.214.821 1.605q.82.39 2.444.39m-1.524-2.737q.255 0 .44.255q.187.254.187.625q0 .372-.187.626q-.186.254-.44.254q-.274 0-.462-.254q-.186-.254-.187-.626c-.001-.372.062-.456.187-.625q.188-.256.462-.255"/></svg>